PathFileType	4	(X/Y/Z)	C:\Users\italobelli\Desktop\GitHub\PTbot_officialCBL\Personal_Results\FLX01_noisy1.trc
DataRate	CameraRate	NumFrames	NumMarkers	Units	OrigDataRate	OrigDataStartFrame	OrigNumFrames
106.533333	106.533333	34	9	m	106.533333	201	800
Frame#	Time		gu		centelbow		EpL		centpxt8		centijc7		ij		ts		aa		ai
			X1	Y1	Z1	X2	Y2	Z2	X3	Y3	Z3	X4	Y4	Z4	X5	Y5	Z5	X6	Y6	Z6	X7	Y7	Z7	X8	Y8	Z8	X9	Y9	Z9

201	1.8773	-0.077066	0.038556	0.13953	0.15284	0.059879	0.22446	0.14296	0.08806	0.23632	-0.046816	-0.15316	-0.008669	-0.046816	0.031938	-0.008669	0	0	0	-0.15566	-0.0041936	0.062366	-0.10097	0.054969	0.15049	-0.13876	-0.098856	0.12286
202	1.8867	-0.077435	0.039064	0.13906	0.1523	0.062804	0.22476	0.14213	0.090978	0.23644	-0.046816	-0.15316	-0.008669	-0.046816	0.031938	-0.008669	0	0	0	-0.15577	-0.0042876	0.062322	-0.10116	0.055485	0.15005	-0.1386	-0.098593	0.12329
203	1.8961	-0.077797	0.039555	0.13859	0.15173	0.065705	0.22505	0.14128	0.093868	0.23656	-0.046816	-0.15316	-0.008669	-0.046816	0.031938	-0.008669	0	0	0	-0.15589	-0.0043854	0.062277	-0.10136	0.055991	0.1496	-0.13843	-0.098332	0.12371
204	1.9055	-0.078153	0.040031	0.13813	0.15113	0.068582	0.22533	0.1404	0.096729	0.23667	-0.046816	-0.15316	-0.008669	-0.046816	0.031938	-0.008669	0	0	0	-0.15599	-0.0044872	0.062233	-0.10156	0.056488	0.14917	-0.13826	-0.098073	0.12412
205	1.9149	-0.078503	0.040489	0.13768	0.15051	0.071433	0.2256	0.1395	0.099559	0.23678	-0.046816	-0.15316	-0.008669	-0.046816	0.031938	-0.008669	0	0	0	-0.1561	-0.0045933	0.062187	-0.10176	0.056974	0.14874	-0.13809	-0.097817	0.12454
206	1.9243	-0.078844	0.040929	0.13722	0.14985	0.074259	0.22586	0.13858	0.10236	0.23688	-0.046816	-0.15316	-0.008669	-0.046816	0.031938	-0.008669	0	0	0	-0.1562	-0.004704	0.062142	-0.10196	0.05745	0.14831	-0.13792	-0.097564	0.12494
207	1.9337	-0.079177	0.041351	0.13678	0.14917	0.077057	0.22611	0.13763	0.10512	0.23698	-0.046816	-0.15316	-0.008669	-0.046816	0.031938	-0.008669	0	0	0	-0.15629	-0.0048196	0.062096	-0.10216	0.057914	0.14789	-0.13775	-0.097314	0.12535
208	1.9431	-0.079501	0.041753	0.13634	0.14846	0.079828	0.22635	0.13666	0.10786	0.23707	-0.046816	-0.15316	-0.008669	-0.046816	0.031938	-0.008669	0	0	0	-0.15638	-0.0049404	0.06205	-0.10236	0.058365	0.14748	-0.13758	-0.097068	0.12575
209	1.9524	-0.079814	0.042136	0.1359	0.14772	0.082569	0.22658	0.13567	0.11055	0.23716	-0.046816	-0.15316	-0.008669	-0.046816	0.031938	-0.008669	0	0	0	-0.15647	-0.0050667	0.062004	-0.10256	0.058804	0.14707	-0.13741	-0.096826	0.12614
210	1.9618	-0.080118	0.042499	0.13547	0.14695	0.085281	0.2268	0.13466	0.11321	0.23724	-0.046816	-0.15316	-0.008669	-0.046816	0.031938	-0.008669	0	0	0	-0.15654	-0.0051987	0.061957	-0.10276	0.059229	0.14667	-0.13724	-0.096588	0.12653
211	1.9712	-0.080409	0.04284	0.13505	0.14616	0.087962	0.22701	0.13363	0.11584	0.23732	-0.046816	-0.15316	-0.008669	-0.046816	0.031938	-0.008669	0	0	0	-0.15662	-0.0053368	0.061911	-0.10296	0.059641	0.14628	-0.13707	-0.096355	0.12692
212	1.9806	-0.080689	0.04316	0.13464	0.14534	0.090611	0.2272	0.13258	0.11843	0.23739	-0.046816	-0.15316	-0.008669	-0.046816	0.031938	-0.008669	0	0	0	-0.15669	-0.0054812	0.061864	-0.10316	0.060038	0.1459	-0.1369	-0.096128	0.1273
213	1.99	-0.080956	0.043457	0.13423	0.1445	0.093228	0.22738	0.13152	0.12098	0.23745	-0.046816	-0.15316	-0.008669	-0.046816	0.031938	-0.008669	0	0	0	-0.15675	-0.0056323	0.061818	-0.10335	0.060419	0.14553	-0.13672	-0.095906	0.12768
214	1.9994	-0.08121	0.043732	0.13384	0.14363	0.095811	0.22755	0.13043	0.12348	0.23751	-0.046816	-0.15316	-0.008669	-0.046816	0.031938	-0.008669	0	0	0	-0.15681	-0.0057902	0.061771	-0.10355	0.060785	0.14517	-0.13655	-0.09569	0.12806
215	2.0088	-0.081455	0.04399	0.13344	0.14273	0.098374	0.2277	0.12933	0.12597	0.23754	-0.046816	-0.15316	-0.008669	-0.046816	0.031938	-0.008669	0	0	0	-0.15686	-0.0059531	0.061724	-0.10374	0.061141	0.14482	-0.13638	-0.095478	0.12843
216	2.0181	-0.081701	0.044242	0.13305	0.14182	0.10094	0.22783	0.1282	0.12845	0.23755	-0.046816	-0.15316	-0.008669	-0.046816	0.031938	-0.008669	0	0	0	-0.1569	-0.0061182	0.061677	-0.10394	0.061493	0.14447	-0.13621	-0.095266	0.1288
217	2.0275	-0.081947	0.044489	0.13266	0.14087	0.10349	0.22793	0.12704	0.13093	0.23752	-0.046816	-0.15316	-0.008669	-0.046816	0.031938	-0.008669	0	0	0	-0.15694	-0.0062854	0.061629	-0.10414	0.061843	0.14412	-0.13603	-0.095055	0.12917
218	2.0369	-0.082193	0.04473	0.13227	0.1399	0.10605	0.22802	0.12586	0.13341	0.23746	-0.046816	-0.15316	-0.008669	-0.046816	0.031938	-0.008669	0	0	0	-0.15697	-0.0064545	0.06158	-0.10435	0.06219	0.14377	-0.13586	-0.094844	0.12954
219	2.0463	-0.082439	0.044965	0.13188	0.13891	0.1086	0.22809	0.12465	0.13588	0.23737	-0.046816	-0.15316	-0.008669	-0.046816	0.031938	-0.008669	0	0	0	-0.157	-0.0066256	0.061531	-0.10455	0.062535	0.14341	-0.13568	-0.094634	0.1299
220	2.0557	-0.082685	0.045195	0.13149	0.1379	0.11114	0.22813	0.12342	0.13834	0.23725	-0.046816	-0.15316	-0.008669	-0.046816	0.031938	-0.008669	0	0	0	-0.15702	-0.0067985	0.061482	-0.10476	0.062876	0.14307	-0.13551	-0.094424	0.13027
221	2.0651	-0.08293	0.045419	0.13109	0.13686	0.11368	0.22815	0.12216	0.1408	0.23709	-0.046816	-0.15316	-0.008669	-0.046816	0.031938	-0.008669	0	0	0	-0.15704	-0.0069732	0.061432	-0.10498	0.063214	0.14272	-0.13533	-0.094214	0.13064
222	2.0745	-0.083176	0.045639	0.1307	0.1358	0.11622	0.22816	0.12088	0.14325	0.23691	-0.046816	-0.15316	-0.008669	-0.046816	0.031938	-0.008669	0	0	0	-0.15705	-0.0071495	0.061381	-0.10519	0.06355	0.14237	-0.13516	-0.094004	0.131
223	2.0839	-0.083421	0.045854	0.13031	0.13472	0.11874	0.22815	0.11958	0.1457	0.2367	-0.046816	-0.15316	-0.008669	-0.046816	0.031938	-0.008669	0	0	0	-0.15705	-0.0073275	0.06133	-0.10541	0.063882	0.14202	-0.13498	-0.093795	0.13137
224	2.0932	-0.083666	0.046063	0.12993	0.13362	0.12126	0.22811	0.11826	0.14813	0.23647	-0.046816	-0.15316	-0.008669	-0.046816	0.031938	-0.008669	0	0	0	-0.15705	-0.007507	0.061279	-0.10563	0.064212	0.14167	-0.13481	-0.093585	0.13173
225	2.1026	-0.08391	0.046268	0.12954	0.1325	0.12377	0.22806	0.11691	0.15055	0.23621	-0.046816	-0.15316	-0.008669	-0.046816	0.031938	-0.008669	0	0	0	-0.15705	-0.0076879	0.061228	-0.10585	0.064538	0.14132	-0.13463	-0.093376	0.13209
226	2.112	-0.084154	0.046469	0.12915	0.13136	0.12626	0.228	0.11555	0.15297	0.23592	-0.046816	-0.15316	-0.008669	-0.046816	0.031938	-0.008669	0	0	0	-0.15704	-0.0078702	0.061176	-0.10608	0.064862	0.14098	-0.13445	-0.093167	0.13245
227	2.1214	-0.084397	0.046665	0.12876	0.1302	0.12875	0.22791	0.11417	0.15537	0.23561	-0.046816	-0.15316	-0.008669	-0.046816	0.031938	-0.008669	0	0	0	-0.15702	-0.0080539	0.061123	-0.10631	0.065182	0.14063	-0.13428	-0.092958	0.13281
228	2.1308	-0.08464	0.046857	0.12838	0.12902	0.13123	0.22781	0.11276	0.15776	0.23527	-0.046816	-0.15316	-0.008669	-0.046816	0.031938	-0.008669	0	0	0	-0.157	-0.0082387	0.061071	-0.10654	0.0655	0.14028	-0.1341	-0.092749	0.13317
229	2.1402	-0.084882	0.047045	0.12799	0.12782	0.13369	0.22769	0.11134	0.16013	0.23491	-0.046816	-0.15316	-0.008669	-0.046816	0.031938	-0.008669	0	0	0	-0.15698	-0.0084247	0.061018	-0.10677	0.065814	0.13994	-0.13392	-0.092539	0.13353
230	2.1496	-0.085124	0.047229	0.1276	0.12661	0.13614	0.22756	0.10991	0.16249	0.23453	-0.046816	-0.15316	-0.008669	-0.046816	0.031938	-0.008669	0	0	0	-0.15695	-0.0086117	0.060965	-0.10701	0.066125	0.13959	-0.13375	-0.09233	0.13388
231	2.1589	-0.085364	0.047409	0.12722	0.12538	0.13858	0.22741	0.10845	0.16484	0.23412	-0.046816	-0.15316	-0.008669	-0.046816	0.031938	-0.008669	0	0	0	-0.15692	-0.0087997	0.060912	-0.10725	0.066433	0.13925	-0.13357	-0.092121	0.13424
232	2.1683	-0.085604	0.047586	0.12684	0.12413	0.141	0.22725	0.10698	0.16717	0.2337	-0.046816	-0.15316	-0.008669	-0.046816	0.031938	-0.008669	0	0	0	-0.15688	-0.0089887	0.060859	-0.10749	0.066738	0.1389	-0.13339	-0.091911	0.13459
233	2.1777	-0.085843	0.047758	0.12645	0.12287	0.14341	0.22707	0.1055	0.16948	0.23326	-0.046816	-0.15316	-0.008669	-0.046816	0.031938	-0.008669	0	0	0	-0.15684	-0.0091784	0.060805	-0.10773	0.06704	0.13856	-0.13321	-0.091701	0.13494
234	2.1871	-0.086081	0.047928	0.12607	0.1216	0.1458	0.22688	0.104	0.17177	0.23279	-0.046816	-0.15316	-0.008669	-0.046816	0.031938	-0.008669	0	0	0	-0.15679	-0.009369	0.060752	-0.10797	0.067339	0.13821	-0.13303	-0.091492	0.13529
